<?xml version="1.0" standalone="no"?>
<!DOCTYPE svg PUBLIC "-//W3C//DTD SVG 20010904//EN"
 "http://www.w3.org/TR/2001/REC-SVG-20010904/DTD/svg10.dtd">
<svg version="1.0" xmlns="http://www.w3.org/2000/svg"
 width="700.000000pt" height="700.000000pt" viewBox="0 0 700.000000 700.000000"
 preserveAspectRatio="xMidYMid meet">
<metadata>
Created by potrace 1.14, written by Peter Selinger 2001-2017
</metadata>
<g transform="translate(0.000000,700.000000) scale(0.100000,-0.100000)"
fill="#000000" stroke="none">
<path d="M2225 6764 c-215 -47 -389 -212 -435 -410 -14 -61 -17 -161 -6 -226
34 -216 210 -390 445 -438 104 -21 248 -19 341 5 198 51 356 205 405 393 21
85 18 218 -7 302 -55 179 -228 331 -428 376 -62 14 -247 13 -315 -2z"/>
<path d="M387 6755 c-186 -51 -328 -198 -374 -385 -10 -45 -12 -445 -10 -2205
2 -1182 6 -2168 10 -2190 31 -174 42 -222 67 -311 60 -206 148 -392 273 -578
43 -63 44 -65 134 -171 251 -294 590 -514 958 -621 89 -26 157 -42 213 -50 20
-3 43 -7 50 -9 50 -17 415 -20 2477 -20 l2320 0 68 27 c206 83 329 254 336
470 5 147 -46 273 -152 379 -66 66 -171 123 -257 139 -37 7 -813 11 -2315 11
-2435 0 -2322 -2 -2480 51 -199 66 -389 210 -503 381 -79 118 -112 198 -159
382 -4 17 -9 980 -10 2140 -2 1518 -5 2125 -13 2165 -35 170 -168 321 -335
382 -73 26 -226 33 -298 13z"/>
<path d="M5548 5355 c-2 -1 -21 -5 -43 -8 -304 -44 -582 -190 -757 -400 -26
-32 -49 -52 -49 -45 -1 7 -2 101 -4 208 -1 107 -3 200 -4 205 -1 7 -167 10
-503 9 -277 -1 -506 -2 -510 -3 -5 0 -8 -752 -8 -1670 l0 -1669 513 0 513 0 0
922 c0 506 3 957 7 1001 9 106 30 185 72 270 78 161 215 270 390 310 68 16
255 23 303 11 12 -3 32 -8 43 -11 204 -44 370 -204 433 -415 15 -49 23 -100
32 -180 1 -14 2 -449 3 -967 l1 -941 510 0 510 0 -1 1047 c-1 1063 -5 1194
-40 1325 -6 22 -13 51 -15 64 -9 49 -57 180 -94 257 -178 371 -500 608 -910
670 -72 11 -382 19 -392 10z"/>
<path d="M1870 3654 l0 -1672 513 1 512 2 0 1670 0 1670 -512 0 -513 1 0
-1672z"/>
</g>
</svg>
